<?xml version="1.0" encoding="UTF-8" standalone="no"?>
<!-- Created with Inkscape (http://www.inkscape.org/) -->

<svg
   xmlns:dc="http://purl.org/dc/elements/1.1/"
   xmlns:cc="http://creativecommons.org/ns#"
   xmlns:rdf="http://www.w3.org/1999/02/22-rdf-syntax-ns#"
   xmlns:svg="http://www.w3.org/2000/svg"
   xmlns="http://www.w3.org/2000/svg"
   xmlns:sodipodi="http://sodipodi.sourceforge.net/DTD/sodipodi-0.dtd"
   xmlns:inkscape="http://www.inkscape.org/namespaces/inkscape"
   width="32"
   height="32"
   viewBox="0 0 8.4666665 8.4666669"
   version="1.1"
   id="svg1143"
   inkscape:version="0.92.4 (5da689c313, 2019-01-14)"
   sodipodi:docname="dash.svg">
  <defs
     id="defs1137">
    <marker
       inkscape:stockid="Arrow1Lstart"
       orient="auto"
       refY="0.0"
       refX="0.0"
       id="Arrow1Lstart"
       style="overflow:visible"
       inkscape:isstock="true">
      <path
         id="path1727"
         d="M 0.0,0.0 L 5.0,-5.0 L -12.5,0.0 L 5.0,5.0 L 0.0,0.0 z "
         style="fill-rule:evenodd;stroke:#000000;stroke-width:1pt;stroke-opacity:1;fill:#000000;fill-opacity:1"
         transform="scale(0.8) translate(12.5,0)" />
    </marker>
  </defs>
  <sodipodi:namedview
     id="base"
     pagecolor="#ffffff"
     bordercolor="#666666"
     borderopacity="1.0"
     inkscape:pageopacity="0.0"
     inkscape:pageshadow="2"
     inkscape:zoom="7.9195959"
     inkscape:cx="25.450027"
     inkscape:cy="22.421965"
     inkscape:document-units="mm"
     inkscape:current-layer="layer1"
     showgrid="false"
     units="px"
     inkscape:window-width="1360"
     inkscape:window-height="705"
     inkscape:window-x="-8"
     inkscape:window-y="-8"
     inkscape:window-maximized="1" />
  <metadata
     id="metadata1140">
    <rdf:RDF>
      <cc:Work
         rdf:about="">
        <dc:format>image/svg+xml</dc:format>
        <dc:type
           rdf:resource="http://purl.org/dc/dcmitype/StillImage" />
        <dc:title></dc:title>
      </cc:Work>
    </rdf:RDF>
  </metadata>
  <g
     inkscape:label="Capa 1"
     inkscape:groupmode="layer"
     id="layer1"
     transform="translate(0,-288.53331)">
    <ellipse
       style="opacity:1;fill:none;fill-opacity:0;fill-rule:nonzero;stroke:#000000;stroke-width:0.34555561;stroke-linecap:square;stroke-linejoin:miter;stroke-miterlimit:4;stroke-dasharray:none;stroke-dashoffset:0;stroke-opacity:1;paint-order:markers stroke fill"
       id="path1145"
       cx="4.2337775"
       cy="292.76663"
       rx="4.0609999"
       ry="4.0605555" />
    <circle
       style="opacity:1;fill:none;fill-opacity:0;fill-rule:nonzero;stroke:#000000;stroke-width:0.30241875;stroke-linecap:square;stroke-linejoin:miter;stroke-miterlimit:4;stroke-dasharray:1.20967501,1.20967501;stroke-dashoffset:3.02418752;stroke-opacity:1;paint-order:markers stroke fill"
       id="path1145-1"
       cx="4.2337775"
       cy="292.76663"
       r="3.552994" />
    <path
       style="fill:#000000;stroke-width:0.01327482"
       d="m 3.5654643,294.40681 -1.8343486,-0.004 0.045807,-0.13601 c 0.025193,-0.0748 0.0457,-0.13753 0.045568,-0.13936 -1.003e-4,-0.002 5.017e-4,-0.007 0.00141,-0.009 9.081e-4,-0.004 0.00316,-0.012 0.00498,-0.0199 0.00182,-0.007 0.00481,-0.0162 0.00664,-0.0199 0.00182,-0.004 0.00487,-0.0111 0.00676,-0.0167 0.00189,-0.006 0.00762,-0.0219 0.012747,-0.0366 0.00511,-0.0145 0.034393,-0.10422 0.065068,-0.19911 l 0.055772,-0.17258 1.6356416,-0.007 c 1.0754559,-0.004 1.6362204,-0.0111 1.6373299,-0.0199 9.083e-4,-0.007 0.00384,-0.0193 0.00647,-0.0266 0.011507,-0.032 0.2210221,-0.67833 0.2237485,-0.69029 0.00167,-0.007 0.00738,-0.0233 0.012693,-0.0354 0.00531,-0.012 0.011733,-0.0331 0.014264,-0.0464 0.00253,-0.0133 0.0058,-0.0258 0.00728,-0.0275 0.00147,-0.002 0.00416,-0.009 0.006,-0.0167 0.00182,-0.007 0.00481,-0.0162 0.00664,-0.0199 0.00182,-0.004 0.00456,-0.0111 0.00609,-0.0167 0.00152,-0.006 0.00989,-0.0272 0.018612,-0.0482 0.00871,-0.0211 0.017768,-0.048 0.020125,-0.0598 0.00236,-0.012 0.00808,-0.0305 0.012733,-0.0413 0.029813,-0.0702 0.1622107,-0.50224 0.1579047,-0.51515 -0.00404,-0.012 -0.3806938,-0.0158 -1.6148457,-0.0158 -0.8852647,0 -1.6130075,-0.004 -1.6172066,-0.008 -0.0042,-0.004 0.012333,-0.0669 0.036733,-0.13939 0.024402,-0.0724 0.041047,-0.13174 0.036984,-0.13174 -0.00407,0 5e-5,-0.009 0.00914,-0.0199 0.00909,-0.0111 0.01208,-0.0199 0.00664,-0.0199 -0.00544,0 -0.00331,-0.008 0.00474,-0.0176 0.00806,-0.009 0.016421,-0.0291 0.018602,-0.0432 0.00218,-0.014 0.00744,-0.0314 0.01168,-0.0388 0.00424,-0.007 0.030527,-0.0864 0.058407,-0.17588 l 0.050691,-0.16262 1.8195948,-0.002 c 1.0007776,-9.1e-4 1.8445131,-9.1e-4 1.8749678,-2e-4 0.1284845,0.007 0.2785345,0.0961 0.3591869,0.21547 0.069379,0.10267 0.096513,0.20579 0.091416,0.34757 -0.00472,0.1316 -0.02584,0.24302 -0.051991,0.27452 -0.00874,0.0111 -0.013385,0.0198 -0.010289,0.0204 0.00309,5e-4 -0.029505,0.10879 -0.072442,0.24021 -0.042938,0.13148 -0.078826,0.24197 -0.07975,0.2456 -9.082e-4,0.004 -0.00881,0.0239 -0.017521,0.0449 -0.00871,0.0211 -0.018221,0.0509 -0.021132,0.0664 -0.00292,0.0154 -0.00648,0.0295 -0.00793,0.0313 -0.00146,0.002 -0.00381,0.008 -0.00527,0.0133 -0.013348,0.0509 -0.052091,0.17205 -0.058379,0.18253 -0.00438,0.007 -0.0092,0.0193 -0.010722,0.0265 -0.00152,0.007 -0.041613,0.12841 -0.089095,0.26912 -0.047481,0.1407 -0.087488,0.26016 -0.088904,0.26549 -0.00393,0.0148 -0.00927,0.03 -0.039302,0.112 -0.098219,0.26819 -0.4112164,0.57126 -0.7016533,0.67942 -0.1469012,0.0547 -0.1342475,0.0508 -0.2073857,0.0638 -0.014602,0.002 -0.8520067,0.002 -1.8608991,9.1e-4 z m -1.9239595,-1.30778 c 0.024447,-0.0676 0.046008,-0.1288 0.047913,-0.13606 0.00422,-0.0162 -3.011e-4,-0.002 0.073342,-0.2124 0.033392,-0.0949 0.06044,-0.17407 0.060103,-0.17589 -0.00132,-0.007 0.00651,-0.0324 0.018548,-0.0598 0.0096,-0.0219 0.068446,-0.0232 0.9650633,-0.0232 0.9052511,0 0.9541876,9.1e-4 0.9423997,0.0232 -0.00684,0.0133 -0.013027,0.0278 -0.013741,0.0332 -0.00252,0.0192 -0.00814,0.0381 -0.018645,0.0631 -0.028513,0.0676 -0.1254339,0.35844 -0.1194324,0.35844 0.004,0 0.00136,0.008 -0.00586,0.0167 -0.00721,0.009 -0.029351,0.0659 -0.049178,0.12613 l -0.036049,0.10945 H 2.5515169 1.5970577 Z"
       id="path77"
       inkscape:connector-curvature="0" />
  </g>
</svg>
