<?xml version="1.0" encoding="UTF-8" standalone="no"?>
<!-- Created with Inkscape (http://www.inkscape.org/) -->

<svg
   xmlns:dc="http://purl.org/dc/elements/1.1/"
   xmlns:cc="http://creativecommons.org/ns#"
   xmlns:rdf="http://www.w3.org/1999/02/22-rdf-syntax-ns#"
   xmlns:svg="http://www.w3.org/2000/svg"
   xmlns="http://www.w3.org/2000/svg"
   xmlns:sodipodi="http://sodipodi.sourceforge.net/DTD/sodipodi-0.dtd"
   xmlns:inkscape="http://www.inkscape.org/namespaces/inkscape"
   width="32"
   height="32"
   viewBox="0 0 8.4666665 8.4666669"
   version="1.1"
   id="svg1143"
   inkscape:version="0.92.4 (5da689c313, 2019-01-14)"
   sodipodi:docname="glf.svg">
  <defs
     id="defs1137">
    <marker
       inkscape:stockid="Arrow1Lstart"
       orient="auto"
       refY="0.0"
       refX="0.0"
       id="Arrow1Lstart"
       style="overflow:visible"
       inkscape:isstock="true">
      <path
         id="path1727"
         d="M 0.0,0.0 L 5.0,-5.0 L -12.5,0.0 L 5.0,5.0 L 0.0,0.0 z "
         style="fill-rule:evenodd;stroke:#000000;stroke-width:1pt;stroke-opacity:1;fill:#000000;fill-opacity:1"
         transform="scale(0.8) translate(12.5,0)" />
    </marker>
  </defs>
  <sodipodi:namedview
     id="base"
     pagecolor="#ffffff"
     bordercolor="#666666"
     borderopacity="1.0"
     inkscape:pageopacity="0.0"
     inkscape:pageshadow="2"
     inkscape:zoom="7.9195959"
     inkscape:cx="25.450027"
     inkscape:cy="22.421965"
     inkscape:document-units="mm"
     inkscape:current-layer="layer1"
     showgrid="false"
     units="px"
     inkscape:window-width="1360"
     inkscape:window-height="705"
     inkscape:window-x="-8"
     inkscape:window-y="-8"
     inkscape:window-maximized="1" />
  <metadata
     id="metadata1140">
    <rdf:RDF>
      <cc:Work
         rdf:about="">
        <dc:format>image/svg+xml</dc:format>
        <dc:type
           rdf:resource="http://purl.org/dc/dcmitype/StillImage" />
        <dc:title></dc:title>
      </cc:Work>
    </rdf:RDF>
  </metadata>
  <g
     inkscape:label="Capa 1"
     inkscape:groupmode="layer"
     id="layer1"
     transform="translate(0,-288.53331)">
    <ellipse
       style="opacity:1;fill:none;fill-opacity:0;fill-rule:nonzero;stroke:#000000;stroke-width:0.34555561;stroke-linecap:square;stroke-linejoin:miter;stroke-miterlimit:4;stroke-dasharray:none;stroke-dashoffset:0;stroke-opacity:1;paint-order:markers stroke fill"
       id="path1145"
       cx="4.2337775"
       cy="292.76663"
       rx="4.0609999"
       ry="4.0605555" />
    <circle
       style="opacity:1;fill:none;fill-opacity:0;fill-rule:nonzero;stroke:#000000;stroke-width:0.30241875;stroke-linecap:square;stroke-linejoin:miter;stroke-miterlimit:4;stroke-dasharray:1.20967501,1.20967501;stroke-dashoffset:3.02418752;stroke-opacity:1;paint-order:markers stroke fill"
       id="path1145-1"
       cx="4.2337775"
       cy="292.76663"
       r="3.552994" />
    <path
       inkscape:connector-curvature="0"
       id="path1"
       style="fill:#000000;fill-rule:evenodd;stroke:none;stroke-width:0.03736947"
       d="m 3.4389612,289.78112 v 0.3842 0.38435 l -0.060287,0.008 c -0.4212286,0.0677 -0.8237673,0.44776 -0.9733574,0.91904 -0.051308,0.16153 -0.049627,0.11708 -0.046711,1.21832 l 0.00263,0.99655 0.020874,0.0935 c 0.1289996,0.57896 0.5232457,1.00474 1.0199234,1.10167 l 0.044667,0.008 v 0.38479 0.38496 h 0.2569143 0.2569151 v -0.37764 -0.37765 h 0.2608562 0.2608567 v 0.37765 0.37764 h 0.256912 0.2569152 v -0.38829 -0.38815 l 0.068024,-0.014 c 0.5263493,-0.10372 0.9363873,-0.55653 0.9910215,-1.09425 0.00543,-0.0532 0.0075,-0.32111 0.00598,-0.76942 l -0.00234,-0.68784 -0.018393,-0.014 c -0.017864,-0.014 -0.04583,-0.014 -1.0378781,-0.014 H 3.9831558 l -0.019122,0.019 -0.018977,0.0192 v 0.35502 0.35485 l 0.018977,0.019 0.019122,0.0192 H 4.531582 c 0.5282175,0 0.5489605,5.6e-4 0.5666737,0.014 l 0.018391,0.0158 0.00232,0.29019 c 0.00138,0.17734 -9.32e-4,0.31168 -0.00598,0.34523 -0.02358,0.15698 -0.1519019,0.2916 -0.3350115,0.35166 -0.060876,0.0199 -0.9167359,0.0264 -1.0250325,0.008 -0.2536266,-0.0437 -0.4351833,-0.2834 -0.4696006,-0.6198 -0.01498,-0.14647 -0.0095,-1.72599 0.00613,-1.77126 0.035911,-0.10396 0.1876479,-0.27427 0.3014379,-0.3385 l 0.06204,-0.035 1.0237189,-0.006 c 1.0882737,-0.006 1.0467578,-0.002 1.0587533,-0.0455 0.010605,-0.0381 0.01057,-0.66486 0,-0.70301 -0.012478,-0.0448 -0.017541,-0.0455 -0.3980729,-0.0455 H 4.9960658 v -0.38143 -0.38143 H 4.735209 4.4743528 v 0.38143 0.38143 H 4.2174378 3.9605225 v -0.38143 -0.38143 H 3.6998122 Z" />
  </g>
</svg>
