<?xml version="1.0" encoding="UTF-8" standalone="no"?>
<!-- Created with Inkscape (http://www.inkscape.org/) -->

<svg
   xmlns:dc="http://purl.org/dc/elements/1.1/"
   xmlns:cc="http://creativecommons.org/ns#"
   xmlns:rdf="http://www.w3.org/1999/02/22-rdf-syntax-ns#"
   xmlns:svg="http://www.w3.org/2000/svg"
   xmlns="http://www.w3.org/2000/svg"
   xmlns:sodipodi="http://sodipodi.sourceforge.net/DTD/sodipodi-0.dtd"
   xmlns:inkscape="http://www.inkscape.org/namespaces/inkscape"
   width="32"
   height="32"
   viewBox="0 0 8.4666665 8.4666669"
   version="1.1"
   id="svg1143"
   inkscape:version="0.92.4 (5da689c313, 2019-01-14)"
   sodipodi:docname="ptr.svg">
  <defs
     id="defs1137">
    <marker
       inkscape:stockid="Arrow1Lstart"
       orient="auto"
       refY="0.0"
       refX="0.0"
       id="Arrow1Lstart"
       style="overflow:visible"
       inkscape:isstock="true">
      <path
         id="path1727"
         d="M 0.0,0.0 L 5.0,-5.0 L -12.5,0.0 L 5.0,5.0 L 0.0,0.0 z "
         style="fill-rule:evenodd;stroke:#000000;stroke-width:1pt;stroke-opacity:1;fill:#000000;fill-opacity:1"
         transform="scale(0.8) translate(12.5,0)" />
    </marker>
  </defs>
  <sodipodi:namedview
     id="base"
     pagecolor="#ffffff"
     bordercolor="#666666"
     borderopacity="1.0"
     inkscape:pageopacity="0.0"
     inkscape:pageshadow="2"
     inkscape:zoom="11.2"
     inkscape:cx="7.2393765"
     inkscape:cy="13.890513"
     inkscape:document-units="mm"
     inkscape:current-layer="layer1"
     showgrid="false"
     units="px"
     inkscape:window-width="1360"
     inkscape:window-height="705"
     inkscape:window-x="-8"
     inkscape:window-y="-8"
     inkscape:window-maximized="1" />
  <metadata
     id="metadata1140">
    <rdf:RDF>
      <cc:Work
         rdf:about="">
        <dc:format>image/svg+xml</dc:format>
        <dc:type
           rdf:resource="http://purl.org/dc/dcmitype/StillImage" />
        <dc:title></dc:title>
      </cc:Work>
    </rdf:RDF>
  </metadata>
  <g
     inkscape:label="Capa 1"
     inkscape:groupmode="layer"
     id="layer1"
     transform="translate(0,-288.53331)">
    <ellipse
       style="opacity:1;fill:none;fill-opacity:0;fill-rule:nonzero;stroke:#000000;stroke-width:0.34555561;stroke-linecap:square;stroke-linejoin:miter;stroke-miterlimit:4;stroke-dasharray:none;stroke-dashoffset:0;stroke-opacity:1;paint-order:markers stroke fill"
       id="path1145"
       cx="4.2337775"
       cy="292.76663"
       rx="4.0609999"
       ry="4.0605555" />
    <circle
       style="opacity:1;fill:none;fill-opacity:0;fill-rule:nonzero;stroke:#000000;stroke-width:0.30241875;stroke-linecap:square;stroke-linejoin:miter;stroke-miterlimit:4;stroke-dasharray:1.20967501,1.20967501;stroke-dashoffset:3.02418752;stroke-opacity:1;paint-order:markers stroke fill"
       id="path1145-1"
       cx="4.2337775"
       cy="292.76663"
       r="3.552994" />
    <path
       inkscape:connector-curvature="0"
       style="fill-rule:evenodd;stroke-width:0.05503336"
       d="m 2.8312295,291.50944 c 0.024115,-0.67795 0.1854776,-1.49571 1.6510022,-1.51346 0.7589323,-0.006 1.5134154,0.67756 1.5134154,1.51346 0,0.83577 -0.677579,1.5134 -1.5134154,1.5134 H 3.3815638 v 0.3302 h 1.5409338 v 0.55055 H 3.3815638 v 1.59601 H 2.8312282 v -1.59601 H 2.5560637 v -0.55055 h 0.2751645 v -0.3302 H 2.5560637 v -0.55055 h 0.2751645 c 0,0 -0.02938,-0.1378 0,-0.96304 z m 0.5503356,0 c 0.018655,-0.55445 0.1444172,-0.95433 1.1006679,-0.9631 0.5011241,-0.004 0.9630824,0.43095 0.9630824,0.9631 0,0.5317 -0.4311841,0.96304 -0.9630824,0.96304 H 3.3815638 c 0,0 -0.01807,-0.4251 1.3e-6,-0.96304 z"
       id="path4" />
  </g>
</svg>
